<mxfile host="65bd71144e">
    <diagram id="CEYDwj0wmEZbfvsYecYL" name="Page-1">
        <mxGraphModel dx="1143" dy="790" grid="0" gridSize="10" guides="1" tooltips="1" connect="1" arrows="1" fold="1" page="1" pageScale="1" pageWidth="1654" pageHeight="2336" math="0" shadow="0">
            <root>
                <mxCell id="0"/>
                <mxCell id="1" parent="0"/>
                <mxCell id="2" value="" style="shape=umlLifeline;participant=umlActor;perimeter=lifelinePerimeter;whiteSpace=wrap;html=1;container=1;collapsible=0;recursiveResize=0;verticalAlign=top;spacingTop=36;outlineConnect=0;" parent="1" vertex="1">
                    <mxGeometry x="120" y="150" width="20" height="400" as="geometry"/>
                </mxCell>
                <mxCell id="25" value="" style="html=1;points=[];perimeter=orthogonalPerimeter;" parent="2" vertex="1">
                    <mxGeometry x="5" y="50" width="10" height="300" as="geometry"/>
                </mxCell>
                <mxCell id="34" value="5. Display the message" style="html=1;verticalAlign=bottom;endArrow=open;dashed=1;endSize=8;" edge="1" parent="2" source="12">
                    <mxGeometry relative="1" as="geometry">
                        <mxPoint x="90" y="210" as="sourcePoint"/>
                        <mxPoint x="10" y="210" as="targetPoint"/>
                    </mxGeometry>
                </mxCell>
                <mxCell id="10" value="" style="shape=umlLifeline;participant=umlControl;perimeter=lifelinePerimeter;whiteSpace=wrap;html=1;container=1;collapsible=0;recursiveResize=0;verticalAlign=top;spacingTop=36;outlineConnect=0;" parent="1" vertex="1">
                    <mxGeometry x="610" y="150" width="40" height="300" as="geometry"/>
                </mxCell>
                <mxCell id="30" value="3. Send the sign up request and receive the message from server" style="edgeStyle=orthogonalEdgeStyle;html=1;align=left;spacingLeft=2;endArrow=block;rounded=0;strokeColor=#000000;" parent="10" target="10" edge="1">
                    <mxGeometry relative="1" as="geometry">
                        <mxPoint x="20" y="140" as="sourcePoint"/>
                        <Array as="points">
                            <mxPoint x="50" y="140"/>
                            <mxPoint x="50" y="150"/>
                        </Array>
                        <mxPoint x="25" y="160" as="targetPoint"/>
                    </mxGeometry>
                </mxCell>
                <mxCell id="32" value="" style="html=1;points=[];perimeter=orthogonalPerimeter;" parent="10" vertex="1">
                    <mxGeometry x="15" y="100" width="10" height="90" as="geometry"/>
                </mxCell>
                <mxCell id="11" value="PlayFabManager" style="text;align=center;fontStyle=1;verticalAlign=middle;spacingLeft=3;spacingRight=3;strokeColor=none;rotatable=0;points=[[0,0.5],[1,0.5]];portConstraint=eastwest;" parent="1" vertex="1">
                    <mxGeometry x="570" y="110" width="120" height="26" as="geometry"/>
                </mxCell>
                <mxCell id="12" value="" style="shape=umlLifeline;participant=umlBoundary;perimeter=lifelinePerimeter;whiteSpace=wrap;html=1;container=1;collapsible=0;recursiveResize=0;verticalAlign=top;spacingTop=36;outlineConnect=0;" parent="1" vertex="1">
                    <mxGeometry x="350" y="150" width="50" height="300" as="geometry"/>
                </mxCell>
                <mxCell id="33" value="" style="html=1;points=[];perimeter=orthogonalPerimeter;" parent="12" vertex="1">
                    <mxGeometry x="20" y="60" width="10" height="180" as="geometry"/>
                </mxCell>
                <mxCell id="13" value="Unity" style="text;align=center;fontStyle=1;verticalAlign=middle;spacingLeft=3;spacingRight=3;strokeColor=none;rotatable=0;points=[[0,0.5],[1,0.5]];portConstraint=eastwest;" parent="1" vertex="1">
                    <mxGeometry x="335" y="110" width="80" height="26" as="geometry"/>
                </mxCell>
                <mxCell id="18" value="1. Enter the username, email and password" style="html=1;verticalAlign=bottom;endArrow=block;startFill=1;" parent="1" source="2" target="12" edge="1">
                    <mxGeometry width="80" relative="1" as="geometry">
                        <mxPoint x="180" y="380" as="sourcePoint"/>
                        <mxPoint x="260" y="380" as="targetPoint"/>
                        <Array as="points">
                            <mxPoint x="200" y="220"/>
                        </Array>
                    </mxGeometry>
                </mxCell>
                <mxCell id="20" value="2. Get the username, email and password" style="html=1;verticalAlign=bottom;endArrow=block;strokeColor=#000000;" parent="1" source="12" target="10" edge="1">
                    <mxGeometry width="80" relative="1" as="geometry">
                        <mxPoint x="310" y="240" as="sourcePoint"/>
                        <mxPoint x="390" y="240" as="targetPoint"/>
                        <Array as="points">
                            <mxPoint x="540" y="260"/>
                        </Array>
                    </mxGeometry>
                </mxCell>
                <mxCell id="31" value="4. Return the message to display&amp;nbsp;" style="html=1;verticalAlign=bottom;endArrow=open;dashed=1;endSize=8;strokeColor=#000000;" parent="1" target="12" edge="1" source="10">
                    <mxGeometry relative="1" as="geometry">
                        <mxPoint x="535" y="330" as="sourcePoint"/>
                        <mxPoint x="460" y="340" as="targetPoint"/>
                        <Array as="points">
                            <mxPoint x="520" y="320"/>
                        </Array>
                    </mxGeometry>
                </mxCell>
                <mxCell id="35" value="User" style="text;align=center;fontStyle=1;verticalAlign=middle;spacingLeft=3;spacingRight=3;strokeColor=none;rotatable=0;points=[[0,0.5],[1,0.5]];portConstraint=eastwest;" vertex="1" parent="1">
                    <mxGeometry x="90" y="110" width="80" height="26" as="geometry"/>
                </mxCell>
            </root>
        </mxGraphModel>
    </diagram>
</mxfile>